<svg xmlns="http://www.w3.org/2000/svg" xmlns:xlink="http://www.w3.org/1999/xlink" viewBox="0 0 158.18 201.28"><defs><style>.cls-1{fill:none;}.cls-2{fill:#64c089;}.cls-2,.cls-3{stroke:#231f20;stroke-miterlimit:10;}.cls-3{fill:#10a2dc;}.cls-4{clip-path:url(#clip-path);}.cls-5{fill:#e9504f;}</style><clipPath id="clip-path" transform="translate(-70.91 -49.36)"><rect class="cls-1" x="78.83" y="64.01" width="142.53" height="156.86"/></clipPath></defs><g id="Layer_2" data-name="Layer 2"><path class="cls-2" d="M218.86,143.38v0l-11.25-24.13a.51.51,0,0,0-1,.21V225.35H93.68V191.5a.51.51,0,0,0-.05-.22L82.19,167a.51.51,0,0,0-1,.22v73a9.94,9.94,0,0,0,10,9.95H208.9a10,10,0,0,0,10-10V164.87h9.21a.52.52,0,0,0,.47-.74Zm-68.69,101a6.36,6.36,0,0,1-7.64-7.65,6.29,6.29,0,0,1,4.73-4.73,6.37,6.37,0,0,1,7.66,7.64A6.3,6.3,0,0,1,150.17,244.4Z" transform="translate(-70.91 -49.36)"/></g><g id="Layer_3" data-name="Layer 3"><path class="cls-3" d="M218.78,60.31v71.87a.49.49,0,0,1-.94.21L206.6,108.27a.54.54,0,0,1,0-.21V65a.49.49,0,0,0-.49-.5H94.1a.5.5,0,0,0-.5.5V180.23a.49.49,0,0,1-.94.21l-21.2-45.27a.49.49,0,0,1,.45-.71h8.73a.49.49,0,0,0,.49-.5V60.31A10.45,10.45,0,0,1,91.58,49.86H208.34A10.44,10.44,0,0,1,218.78,60.31Z" transform="translate(-70.91 -49.36)"/></g><g id="Layer_5" data-name="Layer 5"><g class="cls-4"><g class="cls-4"><path class="cls-5" d="M117.85,148.23v2.69a.49.49,0,0,1-.47.52h-8a.5.5,0,0,1-.48-.52v-19a.5.5,0,0,1,.48-.52h2.49a.5.5,0,0,1,.48.52v15.3a.49.49,0,0,0,.47.52h4.59a.49.49,0,0,1,.47.52" transform="translate(-70.91 -49.36)"/></g><g class="cls-4"><path class="cls-5" d="M133,142.78v2.16a.49.49,0,0,1-.47.51h-7.87a.49.49,0,0,1-.46-.51v-2.16a.48.48,0,0,1,.46-.51h7.87a.49.49,0,0,1,.47.51" transform="translate(-70.91 -49.36)"/><path class="cls-5" d="M132.34,147.14a7.1,7.1,0,0,1-6.48,4.6c-4,0-7.29-3.71-7.1-8.2.17-4.12,3.35-7.45,7.1-7.45a7.17,7.17,0,0,1,6.7,5.19.19.19,0,0,1-.17.26h-3.06a.19.19,0,0,1-.15-.08,3.9,3.9,0,0,0-3.32-2,4.45,4.45,0,0,0-.59,8.76,3.8,3.8,0,0,0,3.51-1.34.15.15,0,0,1,.13-.07h3.27a.2.2,0,0,1,.16.29" transform="translate(-70.91 -49.36)"/></g><g class="cls-4"><path class="cls-5" d="M142.11,136.29H140.6a5.73,5.73,0,0,0-5.44,6v8.66a.51.51,0,0,0,.48.53H138a.51.51,0,0,0,.48-.53v-8a3.15,3.15,0,0,1,2.79-3.3,3,3,0,0,1,3,3.17v8.11a.51.51,0,0,0,.48.53h2.3a.51.51,0,0,0,.48-.53v-8.66a5.73,5.73,0,0,0-5.43-6" transform="translate(-70.91 -49.36)"/></g><g class="cls-4"><path class="cls-5" d="M148.92,137.28l3.91,13.81a.5.5,0,0,0,.46.37h2.2a.5.5,0,0,0,.46-.38l2.45-9.3,2.6,9.31a.49.49,0,0,0,.45.37h2.05a.5.5,0,0,0,.46-.37l3.93-13.81a.51.51,0,0,0-.45-.68h-2.55a.48.48,0,0,0-.46.39l-2.19,8.75L159.88,137a.48.48,0,0,0-.45-.37h-2.12a.48.48,0,0,0-.46.38l-2.28,8.65L152.34,137a.48.48,0,0,0-.45-.38h-2.52a.51.51,0,0,0-.45.68" transform="translate(-70.91 -49.36)"/></g><g class="cls-4"><path class="cls-5" d="M175,142.52h4.75a3.91,3.91,0,0,0-3.6-2.7,4.38,4.38,0,0,0,0,8.7,3.7,3.7,0,0,0,2.72-1.24.45.45,0,0,1,.33-.16H182a.53.53,0,0,1,.42.78,7.11,7.11,0,0,1-6.28,4c-3.95,0-7.15-3.46-7.15-7.74s3.2-7.74,7.15-7.74,7.16,3.47,7.16,7.74a6.77,6.77,0,0,1-.07,1,.48.48,0,0,1-.47.44H175a.5.5,0,0,1-.47-.52V143a.49.49,0,0,1,.47-.52" transform="translate(-70.91 -49.36)"/></g><g class="cls-4"><path class="cls-5" d="M188,151.46h-2.36a.5.5,0,0,1-.47-.53V131.77a.49.49,0,0,1,.47-.52H188a.5.5,0,0,1,.48.52v19.16a.51.51,0,0,1-.48.53" transform="translate(-70.91 -49.36)"/><path class="cls-5" d="M193.94,151.46h-2.36a.51.51,0,0,1-.48-.53V131.77a.5.5,0,0,1,.48-.52h2.36a.5.5,0,0,1,.48.52v19.16a.51.51,0,0,1-.48.53" transform="translate(-70.91 -49.36)"/></g></g></g></svg>